<svg xmlns="http://www.w3.org/2000/svg">
  <defs>
    <symbol id="burger" viewBox="0 0 24 24">
      <path fill="currentColor" d="M3 4h18v2H3zm0 7h18v2H3zm0 7h18v2H3z" />
    </symbol>

    <symbol id="sun" viewBox="0 0 24 24">
      <path fill="currentColor" d="M12 18a6 6 0 1 1 0-12a6 6 0 0 1 0 12M11 1h2v3h-2zm0 19h2v3h-2zM3.515 4.929l1.414-1.414L7.05 5.636L5.636 7.05zM16.95 18.364l1.414-1.414l2.121 2.121l-1.414 1.414zm2.121-14.85l1.414 1.415l-2.121 2.121l-1.414-1.414zM5.636 16.95l1.414 1.414l-2.121 2.121l-1.414-1.414zM23 11v2h-3v-2zM4 11v2H1v-2z" />
    </symbol>

    <symbol id="moon" viewBox="0 0 24 24">
      <path fill="currentColor" d="M9.822 2.238a9 9 0 0 0 11.94 11.94C20.768 18.654 16.775 22 12 22C6.477 22 2 17.523 2 12c0-4.775 3.346-8.768 7.822-9.762m8.342.053L19 2.5v1l-.836.209a2 2 0 0 0-1.455 1.455L16.5 6h-1l-.209-.836a2 2 0 0 0-1.455-1.455L13 3.5v-1l.836-.209A2 2 0 0 0 15.29.836L15.5 0h1l.209.836a2 2 0 0 0 1.455 1.455m5 5L24 7.5v1l-.836.209a2 2 0 0 0-1.455 1.455L21.5 11h-1l-.209-.836a2 2 0 0 0-1.455-1.455L18 8.5v-1l.836-.209a2 2 0 0 0 1.455-1.455L20.5 5h1l.209.836a2 2 0 0 0 1.455 1.455" />
    </symbol>

    <symbol id="download" viewBox="0 0 24 24">
      <path fill="currentColor" d="m16 2l5 5v14.008a.993.993 0 0 1-.993.992H3.993A1 1 0 0 1 3 21.008V2.992C3 2.444 3.445 2 3.993 2zm-3 10V8h-2v4H8l4 4l4-4z" />
    </symbol>

    <symbol id="github" viewBox="0 0 24 24">
      <path fill="currentColor" d="M12.001 2c-5.525 0-10 4.475-10 10a9.99 9.99 0 0 0 6.837 9.488c.5.087.688-.213.688-.476c0-.237-.013-1.024-.013-1.862c-2.512.463-3.162-.612-3.362-1.175c-.113-.288-.6-1.175-1.025-1.413c-.35-.187-.85-.65-.013-.662c.788-.013 1.35.725 1.538 1.025c.9 1.512 2.337 1.087 2.912.825c.088-.65.35-1.087.638-1.337c-2.225-.25-4.55-1.113-4.55-4.938c0-1.088.387-1.987 1.025-2.687c-.1-.25-.45-1.275.1-2.65c0 0 .837-.263 2.75 1.024a9.3 9.3 0 0 1 2.5-.337c.85 0 1.7.112 2.5.337c1.913-1.3 2.75-1.024 2.75-1.024c.55 1.375.2 2.4.1 2.65c.637.7 1.025 1.587 1.025 2.687c0 3.838-2.337 4.688-4.562 4.938c.362.312.675.912.675 1.85c0 1.337-.013 2.412-.013 2.75c0 .262.188.574.688.474A10.02 10.02 0 0 0 22 12c0-5.525-4.475-10-10-10" />
    </symbol>

    <symbol id="linkedin" viewBox="0 0 24 24">
      <path fill="currentColor" d="M18.336 18.339h-2.665v-4.177c0-.996-.02-2.278-1.39-2.278c-1.389 0-1.601 1.084-1.601 2.205v4.25h-2.666V9.75h2.56v1.17h.035c.358-.674 1.228-1.387 2.528-1.387c2.7 0 3.2 1.778 3.2 4.092v4.714M7.004 8.575a1.546 1.546 0 0 1-1.548-1.549a1.548 1.548 0 1 1 1.547 1.549m1.336 9.764H5.667V9.75H8.34zM19.67 3H4.33C3.594 3 3 3.58 3 4.297v15.406C3 20.42 3.594 21 4.328 21h15.339C20.4 21 21 20.42 21 19.703V4.297C21 3.581 20.4 3 19.666 3z" />
    </symbol>

    <symbol id="email" viewBox="0 0 24 24">
      <path fill="currentColor" d="M3 3h18a1 1 0 0 1 1 1v16a1 1 0 0 1-1 1H3a1 1 0 0 1-1-1V4a1 1 0 0 1 1-1m9.06 8.683L5.648 6.238L4.353 7.762l7.72 6.555l7.581-6.56l-1.308-1.513z" />
    </symbol>
  </defs>
</svg>